<?xml version="1.0" encoding="UTF-8" standalone="no"?><svg xmlns="http://www.w3.org/2000/svg" xmlns:xlink="http://www.w3.org/1999/xlink" contentScriptType="application/ecmascript" contentStyleType="text/css" height="269px" preserveAspectRatio="none" style="width:270px;height:269px;" version="1.1" viewBox="0 0 270 269" width="270px" zoomAndPan="magnify"><defs><filter height="300%" id="f18zm79f9jsfrj" width="300%" x="-1" y="-1"><feGaussianBlur result="blurOut" stdDeviation="2.0"/><feColorMatrix in="blurOut" result="blurOut2" type="matrix" values="0 0 0 0 0 0 0 0 0 0 0 0 0 0 0 0 0 0 .4 0"/><feOffset dx="4.0" dy="4.0" in="blurOut2" result="blurOut3"/><feBlend in="SourceGraphic" in2="blurOut3" mode="normal"/></filter></defs><g><!--MD5=[0f81df3f44817ebb52349d02ba17b91f]
class Workout.BasicWorkout--><a href="BasicWorkout.html" target="_top" title="BasicWorkout.html" xlink:actuate="onRequest" xlink:href="BasicWorkout.html" xlink:show="new" xlink:title="BasicWorkout.html" xlink:type="simple"><rect codeLine="5" fill="#FEFECE" filter="url(#f18zm79f9jsfrj)" height="233.2031" id="Workout.BasicWorkout" style="stroke: #A80036; stroke-width: 1.5;" width="244" x="7" y="7"/><ellipse cx="77.25" cy="25.9688" fill="#ADD1B2" rx="11" ry="11" style="stroke: #A80036; stroke-width: 1.0;"/><path d="M80.2188,31.6094 Q79.6406,31.9063 79,32.0469 Q78.3594,32.2031 77.6563,32.2031 Q75.1563,32.2031 73.8281,30.5625 Q72.5156,28.9063 72.5156,25.7813 Q72.5156,22.6563 73.8281,21 Q75.1563,19.3438 77.6563,19.3438 Q78.3594,19.3438 79,19.5 Q79.6563,19.6563 80.2188,19.9531 L80.2188,22.6719 Q79.5938,22.0938 79,21.8281 Q78.4063,21.5469 77.7813,21.5469 Q76.4375,21.5469 75.75,22.625 Q75.0625,23.6875 75.0625,25.7813 Q75.0625,27.875 75.75,28.9531 Q76.4375,30.0156 77.7813,30.0156 Q78.4063,30.0156 79,29.75 Q79.5938,29.4688 80.2188,28.8906 L80.2188,31.6094 Z "/><text fill="#000000" font-family="sans-serif" font-size="14" lengthAdjust="spacingAndGlyphs" textLength="95" x="97.75" y="24.9951">BasicWorkout</text><text fill="#000000" font-family="sans-serif" font-size="10" lengthAdjust="spacingAndGlyphs" textLength="40" x="125.25" y="37.5791">Workout</text><line style="stroke: #A80036; stroke-width: 1.5;" x1="8" x2="250" y1="44.9375" y2="44.9375"/><polygon fill="none" points="18,50.9375,22,54.9375,18,58.9375,14,54.9375" style="stroke: #B38D22; stroke-width: 1.0;"/><text fill="#000000" font-family="sans-serif" font-size="11" lengthAdjust="spacingAndGlyphs" textLength="69" x="27" y="59.1479">duration: int</text><polygon fill="none" points="18,63.7422,22,67.7422,18,71.7422,14,67.7422" style="stroke: #B38D22; stroke-width: 1.0;"/><text fill="#000000" font-family="sans-serif" font-size="11" lengthAdjust="spacingAndGlyphs" textLength="70" x="27" y="71.9526">intensity: int</text><polygon fill="none" points="18,76.5469,22,80.5469,18,84.5469,14,80.5469" style="stroke: #B38D22; stroke-width: 1.0;"/><text fill="#000000" font-family="sans-serif" font-size="11" lengthAdjust="spacingAndGlyphs" textLength="61" x="27" y="84.7573">energy: int</text><polygon fill="none" points="18,89.3516,22,93.3516,18,97.3516,14,93.3516" style="stroke: #B38D22; stroke-width: 1.0;"/><text fill="#000000" font-family="sans-serif" font-size="11" lengthAdjust="spacingAndGlyphs" textLength="59" x="27" y="97.562">date: Date</text><polygon fill="none" points="18,102.1563,22,106.1563,18,110.1563,14,106.1563" style="stroke: #B38D22; stroke-width: 1.0;"/><text fill="#000000" font-family="sans-serif" font-size="11" lengthAdjust="spacingAndGlyphs" textLength="105" x="27" y="110.3667">description: String</text><line style="stroke: #A80036; stroke-width: 1.5;" x1="8" x2="250" y1="116.9609" y2="116.9609"/><ellipse cx="18" cy="127.9609" fill="#84BE84" rx="3" ry="3" style="stroke: #038048; stroke-width: 1.0;"/><text fill="#000000" font-family="sans-serif" font-size="11" lengthAdjust="spacingAndGlyphs" textLength="132" x="27" y="131.1714">BasicWorkout(Date, int)</text><ellipse cx="18" cy="140.7656" fill="#84BE84" rx="3" ry="3" style="stroke: #038048; stroke-width: 1.0;"/><text fill="#000000" font-family="sans-serif" font-size="11" lengthAdjust="spacingAndGlyphs" textLength="154" x="27" y="143.9761">BasicWorkout(Date, int, int)</text><ellipse cx="18" cy="153.5703" fill="#84BE84" rx="3" ry="3" style="stroke: #038048; stroke-width: 1.0;"/><text fill="#000000" font-family="sans-serif" font-size="11" lengthAdjust="spacingAndGlyphs" textLength="176" x="27" y="156.7808">BasicWorkout(Date, int, int, int)</text><ellipse cx="18" cy="166.375" fill="#84BE84" rx="3" ry="3" style="stroke: #038048; stroke-width: 1.0;"/><text fill="#000000" font-family="sans-serif" font-size="11" lengthAdjust="spacingAndGlyphs" textLength="218" x="27" y="169.5854">BasicWorkout(Date, int, int, int, String)</text><ellipse cx="18" cy="179.1797" fill="#84BE84" rx="3" ry="3" style="stroke: #038048; stroke-width: 1.0;"/><text fill="#000000" font-family="sans-serif" font-size="11" lengthAdjust="spacingAndGlyphs" textLength="160" x="27" y="182.3901">BasicWorkout(BasicWorkout)</text><ellipse cx="18" cy="191.9844" fill="#84BE84" rx="3" ry="3" style="stroke: #038048; stroke-width: 1.0;"/><text fill="#000000" font-family="sans-serif" font-size="11" lengthAdjust="spacingAndGlyphs" textLength="132" x="27" y="195.1948">getDescription(): String</text><ellipse cx="18" cy="204.7891" fill="#84BE84" rx="3" ry="3" style="stroke: #038048; stroke-width: 1.0;"/><text fill="#000000" font-family="sans-serif" font-size="11" lengthAdjust="spacingAndGlyphs" textLength="87" x="27" y="207.9995">getEnergy(): int</text><ellipse cx="18" cy="217.5938" fill="#84BE84" rx="3" ry="3" style="stroke: #038048; stroke-width: 1.0;"/><text fill="#000000" font-family="sans-serif" font-size="11" lengthAdjust="spacingAndGlyphs" textLength="150" x="27" y="220.8042">getIntensityString(): String</text><ellipse cx="18" cy="230.3984" fill="#84BE84" rx="3" ry="3" style="stroke: #038048; stroke-width: 1.0;"/><text fill="#000000" font-family="sans-serif" font-size="11" lengthAdjust="spacingAndGlyphs" textLength="96" x="27" y="233.6089">getIntensity(): int</text></a><text fill="#888888" font-family="sans-serif" font-size="10" lengthAdjust="spacingAndGlyphs" textLength="192" x="33" y="256.4854">UMLDoclet 2.0.12, PlantUML 1.2020.16</text><!--MD5=[b34628ef0841b83356689543960ea326]
@startuml
    set namespaceSeparator none
    hide empty fields
    hide empty methods

    class "<size:14>BasicWorkout\n<size:10>Workout" as Workout.BasicWorkout [[BasicWorkout.html]] {
        #duration: int
        #intensity: int
        #energy: int
        #date: Date
        #description: String
        +BasicWorkout(Date, int)
        +BasicWorkout(Date, int, int)
        +BasicWorkout(Date, int, int, int)
        +BasicWorkout(Date, int, int, int, String)
        +BasicWorkout(BasicWorkout)
        +getDescription(): String
        +getEnergy(): int
        +getIntensityString(): String
        +getIntensity(): int
    }

    center footer UMLDoclet 2.0.12, PlantUML 1.2020.16
@enduml

PlantUML version 1.2020.16(Sun Aug 23 22:20:43 CEST 2020)
(APACHE source distribution)
Java Runtime: OpenJDK Runtime Environment
JVM: OpenJDK 64-Bit Server VM
Default Encoding: ANSI_X3.4-1968
Language: en
Country: US
--></g></svg>