<?xml version="1.0" encoding="UTF-8" standalone="no"?><svg xmlns="http://www.w3.org/2000/svg" xmlns:xlink="http://www.w3.org/1999/xlink" contentScriptType="application/ecmascript" contentStyleType="text/css" height="577px" preserveAspectRatio="none" style="width:236px;height:577px;" version="1.1" viewBox="0 0 236 577" width="236px" zoomAndPan="magnify"><defs><filter height="300%" id="f3p4ao0j8860h" width="300%" x="-1" y="-1"><feGaussianBlur result="blurOut" stdDeviation="2.0"/><feColorMatrix in="blurOut" result="blurOut2" type="matrix" values="0 0 0 0 0 0 0 0 0 0 0 0 0 0 0 0 0 0 .4 0"/><feOffset dx="4.0" dy="4.0" in="blurOut2" result="blurOut3"/><feBlend in="SourceGraphic" in2="blurOut3" mode="normal"/></filter></defs><g><!--MD5=[650a94e77b2a97286b2f3a6eca87323a]
class Workout.Date--><a href="Date.html" target="_top" title="Date.html" xlink:actuate="onRequest" xlink:href="Date.html" xlink:show="new" xlink:title="Date.html" xlink:type="simple"><rect codeLine="5" fill="#FEFECE" filter="url(#f3p4ao0j8860h)" height="412.4688" id="Workout.Date" style="stroke: #A80036; stroke-width: 1.5;" width="210" x="7" y="129"/><ellipse cx="87.75" cy="147.9688" fill="#ADD1B2" rx="11" ry="11" style="stroke: #A80036; stroke-width: 1.0;"/><path d="M90.7188,153.6094 Q90.1406,153.9063 89.5,154.0469 Q88.8594,154.2031 88.1563,154.2031 Q85.6563,154.2031 84.3281,152.5625 Q83.0156,150.9063 83.0156,147.7813 Q83.0156,144.6563 84.3281,143 Q85.6563,141.3438 88.1563,141.3438 Q88.8594,141.3438 89.5,141.5 Q90.1563,141.6563 90.7188,141.9531 L90.7188,144.6719 Q90.0938,144.0938 89.5,143.8281 Q88.9063,143.5469 88.2813,143.5469 Q86.9375,143.5469 86.25,144.625 Q85.5625,145.6875 85.5625,147.7813 Q85.5625,149.875 86.25,150.9531 Q86.9375,152.0156 88.2813,152.0156 Q88.9063,152.0156 89.5,151.75 Q90.0938,151.4688 90.7188,150.8906 L90.7188,153.6094 Z "/><text fill="#000000" font-family="sans-serif" font-size="14" lengthAdjust="spacingAndGlyphs" textLength="33" x="111.75" y="146.9951">Date</text><text fill="#000000" font-family="sans-serif" font-size="10" lengthAdjust="spacingAndGlyphs" textLength="40" x="108.25" y="159.5791">Workout</text><line style="stroke: #A80036; stroke-width: 1.5;" x1="8" x2="216" y1="166.9375" y2="166.9375"/><rect fill="none" height="6" style="stroke: #C82930; stroke-width: 1.0;" width="6" x="15" y="174.9375"/><text fill="#000000" font-family="sans-serif" font-size="11" lengthAdjust="spacingAndGlyphs" textLength="28" x="27" y="181.1479">y: int</text><rect fill="none" height="6" style="stroke: #C82930; stroke-width: 1.0;" width="6" x="15" y="187.7422"/><text fill="#000000" font-family="sans-serif" font-size="11" lengthAdjust="spacingAndGlyphs" textLength="33" x="27" y="193.9526">m: int</text><rect fill="none" height="6" style="stroke: #C82930; stroke-width: 1.0;" width="6" x="15" y="200.5469"/><text fill="#000000" font-family="sans-serif" font-size="11" lengthAdjust="spacingAndGlyphs" textLength="29" x="27" y="206.7573">d: int</text><line style="stroke: #A80036; stroke-width: 1.5;" x1="8" x2="216" y1="213.3516" y2="213.3516"/><ellipse cx="18" cy="224.3516" fill="#84BE84" rx="3" ry="3" style="stroke: #038048; stroke-width: 1.0;"/><text fill="#000000" font-family="sans-serif" font-size="11" lengthAdjust="spacingAndGlyphs" textLength="92" x="27" y="227.562">Date(int, int, int)</text><ellipse cx="18" cy="237.1563" fill="#84BE84" rx="3" ry="3" style="stroke: #038048; stroke-width: 1.0;"/><text fill="#000000" font-family="sans-serif" font-size="11" lengthAdjust="spacingAndGlyphs" textLength="60" x="27" y="240.3667">Date(Date)</text><ellipse cx="18" cy="249.9609" fill="#84BE84" rx="3" ry="3" style="stroke: #038048; stroke-width: 1.0;"/><text fill="#000000" font-family="sans-serif" font-size="11" lengthAdjust="spacingAndGlyphs" textLength="34" x="27" y="253.1714">Date()</text><ellipse cx="18" cy="262.7656" fill="#84BE84" rx="3" ry="3" style="stroke: #038048; stroke-width: 1.0;"/><text fill="#000000" font-family="sans-serif" font-size="11" lengthAdjust="spacingAndGlyphs" textLength="74" x="27" y="265.9761">getYear(): int</text><ellipse cx="18" cy="275.5703" fill="#84BE84" rx="3" ry="3" style="stroke: #038048; stroke-width: 1.0;"/><text fill="#000000" font-family="sans-serif" font-size="11" lengthAdjust="spacingAndGlyphs" textLength="69" x="27" y="278.7808">getDay(): int</text><ellipse cx="18" cy="288.375" fill="#84BE84" rx="3" ry="3" style="stroke: #038048; stroke-width: 1.0;"/><text fill="#000000" font-family="sans-serif" font-size="11" lengthAdjust="spacingAndGlyphs" textLength="82" x="27" y="291.5854">getMonth(): int</text><ellipse cx="18" cy="301.1797" fill="#84BE84" rx="3" ry="3" style="stroke: #038048; stroke-width: 1.0;"/><text fill="#000000" font-family="sans-serif" font-size="11" lengthAdjust="spacingAndGlyphs" textLength="98" x="27" y="304.3901">isLeap(): boolean</text><ellipse cx="18" cy="313.9844" fill="#84BE84" rx="3" ry="3" style="stroke: #038048; stroke-width: 1.0;"/><text fill="#000000" font-family="sans-serif" font-size="11" lengthAdjust="spacingAndGlyphs" textLength="79" x="27" y="317.1948">weekday(): int</text><ellipse cx="18" cy="326.7891" fill="#84BE84" rx="3" ry="3" style="stroke: #038048; stroke-width: 1.0;"/><text fill="#000000" font-family="sans-serif" font-size="11" lengthAdjust="spacingAndGlyphs" textLength="109" x="27" y="329.9995">dateString(): String</text><rect fill="#F24D5C" height="6" style="stroke: #C82930; stroke-width: 1.0;" width="6" x="15" y="336.5938"/><text fill="#000000" font-family="sans-serif" font-size="11" lengthAdjust="spacingAndGlyphs" textLength="132" x="27" y="342.8042">numberEnding(): String</text><rect fill="#F24D5C" height="6" style="stroke: #C82930; stroke-width: 1.0;" width="6" x="15" y="349.3984"/><text fill="#000000" font-family="sans-serif" font-size="11" lengthAdjust="spacingAndGlyphs" textLength="133" x="27" y="355.6089">monthName(int): String</text><rect fill="#F24D5C" height="6" style="stroke: #C82930; stroke-width: 1.0;" width="6" x="15" y="362.2031"/><text fill="#000000" font-family="sans-serif" font-size="11" lengthAdjust="spacingAndGlyphs" textLength="117" x="27" y="368.4136">dayName(int): String</text><ellipse cx="18" cy="378.0078" fill="#84BE84" rx="3" ry="3" style="stroke: #038048; stroke-width: 1.0;"/><text fill="#000000" font-family="sans-serif" font-size="11" lengthAdjust="spacingAndGlyphs" textLength="95" x="27" y="381.2183">addDay(int): void</text><ellipse cx="18" cy="390.8125" fill="#84BE84" rx="3" ry="3" style="stroke: #038048; stroke-width: 1.0;"/><text fill="#000000" font-family="sans-serif" font-size="11" lengthAdjust="spacingAndGlyphs" textLength="108" x="27" y="394.0229">addMonth(int): void</text><ellipse cx="18" cy="403.6172" fill="#84BE84" rx="3" ry="3" style="stroke: #038048; stroke-width: 1.0;"/><text fill="#000000" font-family="sans-serif" font-size="11" lengthAdjust="spacingAndGlyphs" textLength="100" x="27" y="406.8276">addYear(int): void</text><ellipse cx="18" cy="416.4219" fill="#84BE84" rx="3" ry="3" style="stroke: #038048; stroke-width: 1.0;"/><text fill="#000000" font-family="sans-serif" font-size="11" lengthAdjust="spacingAndGlyphs" text-decoration="underline" textLength="184" x="27" y="419.6323">julianDayNumber(int, int, int): int</text><ellipse cx="18" cy="429.2266" fill="#84BE84" rx="3" ry="3" style="stroke: #038048; stroke-width: 1.0;"/><text fill="#000000" font-family="sans-serif" font-size="11" lengthAdjust="spacingAndGlyphs" textLength="126" x="27" y="432.437">julianDayNumber(): int</text><ellipse cx="18" cy="442.0313" fill="#84BE84" rx="3" ry="3" style="stroke: #038048; stroke-width: 1.0;"/><text fill="#000000" font-family="sans-serif" font-size="11" lengthAdjust="spacingAndGlyphs" text-decoration="underline" textLength="73" x="27" y="445.2417">lil2jul(int): int</text><ellipse cx="18" cy="454.8359" fill="#84BE84" rx="3" ry="3" style="stroke: #038048; stroke-width: 1.0;"/><text fill="#000000" font-family="sans-serif" font-size="11" lengthAdjust="spacingAndGlyphs" text-decoration="underline" textLength="73" x="27" y="458.0464">jul2lil(int): int</text><ellipse cx="18" cy="467.6406" fill="#84BE84" rx="3" ry="3" style="stroke: #038048; stroke-width: 1.0;"/><text fill="#000000" font-family="sans-serif" font-size="11" lengthAdjust="spacingAndGlyphs" textLength="122" x="27" y="470.8511">lilianDayNumber(): int</text><ellipse cx="18" cy="480.4453" fill="#84BE84" rx="3" ry="3" style="stroke: #038048; stroke-width: 1.0;"/><text fill="#000000" font-family="sans-serif" font-size="11" lengthAdjust="spacingAndGlyphs" text-decoration="underline" textLength="180" x="27" y="483.6558">lilianDayNumber(int, int, int): int</text><ellipse cx="18" cy="493.25" fill="#84BE84" rx="3" ry="3" style="stroke: #038048; stroke-width: 1.0;"/><text fill="#000000" font-family="sans-serif" font-size="11" lengthAdjust="spacingAndGlyphs" textLength="101" x="27" y="496.4604">setJulian(int): void</text><ellipse cx="18" cy="506.0547" fill="#84BE84" rx="3" ry="3" style="stroke: #038048; stroke-width: 1.0;"/><text fill="#000000" font-family="sans-serif" font-size="11" lengthAdjust="spacingAndGlyphs" textLength="130" x="27" y="509.2651">numericString(): String</text><ellipse cx="18" cy="518.8594" fill="#84BE84" rx="3" ry="3" style="stroke: #038048; stroke-width: 1.0;"/><text fill="#000000" font-family="sans-serif" font-size="11" lengthAdjust="spacingAndGlyphs" textLength="120" x="27" y="522.0698">compareTo(Date): int</text><ellipse cx="18" cy="531.6641" fill="#84BE84" rx="3" ry="3" style="stroke: #038048; stroke-width: 1.0;"/><text fill="#000000" font-family="sans-serif" font-size="11" lengthAdjust="spacingAndGlyphs" textLength="88" x="27" y="534.8745">scan(): boolean</text></a><!--MD5=[008d82c49f85b4d489e041917c99c847]
class java.lang.Comparable--><rect codeLine="36" fill="#FEFECE" filter="url(#f3p4ao0j8860h)" height="58.7422" id="java.lang.Comparable" style="stroke: #A80036; stroke-width: 1.5;" width="149" x="37.5" y="10"/><ellipse cx="52.5" cy="28.9688" fill="#B4A7E5" rx="11" ry="11" style="stroke: #A80036; stroke-width: 1.0;"/><path d="M48.4219,24.7344 L48.4219,22.5781 L55.8125,22.5781 L55.8125,24.7344 L53.3438,24.7344 L53.3438,32.8125 L55.8125,32.8125 L55.8125,34.9688 L48.4219,34.9688 L48.4219,32.8125 L50.8906,32.8125 L50.8906,24.7344 L48.4219,24.7344 Z "/><text fill="#000000" font-family="sans-serif" font-size="14" font-style="italic" lengthAdjust="spacingAndGlyphs" textLength="83" x="66.5" y="27.9951">Comparable</text><text fill="#000000" font-family="sans-serif" font-size="10" font-style="italic" lengthAdjust="spacingAndGlyphs" textLength="45" x="85.5" y="40.5791">java.lang</text><rect fill="#FFFFFF" height="15.9688" style="stroke: #000000; stroke-width: 1.0; stroke-dasharray: 2.0,2.0;" width="32" x="157.5" y="7"/><text fill="#000000" font-family="sans-serif" font-size="12" font-style="italic" lengthAdjust="spacingAndGlyphs" textLength="30" x="158.5" y="19.1387">Date</text><line style="stroke: #A80036; stroke-width: 1.5;" x1="38.5" x2="185.5" y1="47.9375" y2="47.9375"/><ellipse cx="48.5" cy="58.9375" fill="#84BE84" rx="3" ry="3" style="stroke: #038048; stroke-width: 1.0;"/><text fill="#000000" font-family="sans-serif" font-size="11" font-style="italic" lengthAdjust="spacingAndGlyphs" textLength="120" x="57.5" y="62.1479">compareTo(Date): int</text><!--MD5=[eee1937f734884db17973c809f025925]
reverse link java.lang.Comparable to Workout.Date--><path codeLine="40" d="M112,89.3 C112,101.18 112,114.63 112,128.97 " fill="none" id="java.lang.Comparable-backto-Workout.Date" style="stroke: #A80036; stroke-width: 1.0; stroke-dasharray: 7.0,7.0;"/><polygon fill="none" points="105,89.18,112,69.18,119,89.18,105,89.18" style="stroke: #A80036; stroke-width: 1.0;"/><text fill="#888888" font-family="sans-serif" font-size="10" lengthAdjust="spacingAndGlyphs" textLength="192" x="13" y="563.751">UMLDoclet 2.0.12, PlantUML 1.2020.16</text><!--MD5=[a1ece0ca4b0c1bda7abdeb48729440b3]
@startuml
    set namespaceSeparator none
    hide empty fields
    hide empty methods

    class "<size:14>Date\n<size:10>Workout" as Workout.Date [[Date.html]] {
        -y: int
        -m: int
        -d: int
        +Date(int, int, int)
        +Date(Date)
        +Date()
        +getYear(): int
        +getDay(): int
        +getMonth(): int
        +isLeap(): boolean
        +weekday(): int
        +dateString(): String
        -numberEnding(): String
        -monthName(int): String
        -dayName(int): String
        +addDay(int): void
        +addMonth(int): void
        +addYear(int): void
        {static} +julianDayNumber(int, int, int): int
        +julianDayNumber(): int
        {static} +lil2jul(int): int
        {static} +jul2lil(int): int
        +lilianDayNumber(): int
        {static} +lilianDayNumber(int, int, int): int
        +setJulian(int): void
        +numericString(): String
        +compareTo(Date): int
        +scan(): boolean
    }

    interface "<size:14>Comparable\n<size:10>java.lang" as java.lang.Comparable<Date> {
        {abstract} +compareTo(Date): int
    }

    java.lang.Comparable <|.. Workout.Date

    center footer UMLDoclet 2.0.12, PlantUML 1.2020.16
@enduml

PlantUML version 1.2020.16(Sun Aug 23 22:20:43 CEST 2020)
(APACHE source distribution)
Java Runtime: OpenJDK Runtime Environment
JVM: OpenJDK 64-Bit Server VM
Default Encoding: ANSI_X3.4-1968
Language: en
Country: US
--></g></svg>