<?xml version="1.0" encoding="UTF-8" standalone="no"?><svg xmlns="http://www.w3.org/2000/svg" xmlns:xlink="http://www.w3.org/1999/xlink" contentScriptType="application/ecmascript" contentStyleType="text/css" height="146px" preserveAspectRatio="none" style="width:270px;height:146px;" version="1.1" viewBox="0 0 270 146" width="270px" zoomAndPan="magnify"><defs><filter height="300%" id="fabk4xzkeqcwr" width="300%" x="-1" y="-1"><feGaussianBlur result="blurOut" stdDeviation="2.0"/><feColorMatrix in="blurOut" result="blurOut2" type="matrix" values="0 0 0 0 0 0 0 0 0 0 0 0 0 0 0 0 0 0 .4 0"/><feOffset dx="4.0" dy="4.0" in="blurOut2" result="blurOut3"/><feBlend in="SourceGraphic" in2="blurOut3" mode="normal"/></filter></defs><g><!--MD5=[f78d8484e331adcc23841e0985aa5205]
class Workout.Main--><a href="Main.html" target="_top" title="Main.html" xlink:actuate="onRequest" xlink:href="Main.html" xlink:show="new" xlink:title="Main.html" xlink:type="simple"><rect codeLine="5" fill="#FEFECE" filter="url(#fabk4xzkeqcwr)" height="109.9609" id="Workout.Main" style="stroke: #A80036; stroke-width: 1.5;" width="244" x="7" y="7"/><ellipse cx="104.75" cy="25.9688" fill="#ADD1B2" rx="11" ry="11" style="stroke: #A80036; stroke-width: 1.0;"/><path d="M107.7188,31.6094 Q107.1406,31.9063 106.5,32.0469 Q105.8594,32.2031 105.1563,32.2031 Q102.6563,32.2031 101.3281,30.5625 Q100.0156,28.9063 100.0156,25.7813 Q100.0156,22.6563 101.3281,21 Q102.6563,19.3438 105.1563,19.3438 Q105.8594,19.3438 106.5,19.5 Q107.1563,19.6563 107.7188,19.9531 L107.7188,22.6719 Q107.0938,22.0938 106.5,21.8281 Q105.9063,21.5469 105.2813,21.5469 Q103.9375,21.5469 103.25,22.625 Q102.5625,23.6875 102.5625,25.7813 Q102.5625,27.875 103.25,28.9531 Q103.9375,30.0156 105.2813,30.0156 Q105.9063,30.0156 106.5,29.75 Q107.0938,29.4688 107.7188,28.8906 L107.7188,31.6094 Z "/><text fill="#000000" font-family="sans-serif" font-size="14" lengthAdjust="spacingAndGlyphs" textLength="32" x="129.25" y="24.9951">Main</text><text fill="#000000" font-family="sans-serif" font-size="10" lengthAdjust="spacingAndGlyphs" textLength="40" x="125.25" y="37.5791">Workout</text><line style="stroke: #A80036; stroke-width: 1.5;" x1="8" x2="250" y1="44.9375" y2="44.9375"/><ellipse cx="18" cy="55.9375" fill="#84BE84" rx="3" ry="3" style="stroke: #038048; stroke-width: 1.0;"/><text fill="#000000" font-family="sans-serif" font-size="11" lengthAdjust="spacingAndGlyphs" text-decoration="underline" textLength="109" x="27" y="59.1479">main(String[]): void</text><rect fill="#F24D5C" height="6" style="stroke: #C82930; stroke-width: 1.0;" width="6" x="15" y="65.7422"/><text fill="#000000" font-family="sans-serif" font-size="11" lengthAdjust="spacingAndGlyphs" text-decoration="underline" textLength="218" x="27" y="71.9526">meanIntensity(BasicWorkout[]): double</text><ellipse cx="18" cy="81.5469" fill="#84BE84" rx="3" ry="3" style="stroke: #038048; stroke-width: 1.0;"/><text fill="#000000" font-family="sans-serif" font-size="11" lengthAdjust="spacingAndGlyphs" text-decoration="underline" textLength="178" x="27" y="84.7573">totalEnergy(BasicWorkout[]): int</text><ellipse cx="18" cy="94.3516" fill="#84BE84" rx="3" ry="3" style="stroke: #038048; stroke-width: 1.0;"/><text fill="#000000" font-family="sans-serif" font-size="11" lengthAdjust="spacingAndGlyphs" text-decoration="underline" textLength="149" x="27" y="97.562">print(BasicWorkout[]): void</text><ellipse cx="18" cy="107.1563" fill="#84BE84" rx="3" ry="3" style="stroke: #038048; stroke-width: 1.0;"/><text fill="#000000" font-family="sans-serif" font-size="11" lengthAdjust="spacingAndGlyphs" text-decoration="underline" textLength="177" x="27" y="110.3667">getDemoData(): BasicWorkout[]</text></a><text fill="#888888" font-family="sans-serif" font-size="10" lengthAdjust="spacingAndGlyphs" textLength="192" x="33" y="133.2432">UMLDoclet 2.0.12, PlantUML 1.2020.16</text><!--MD5=[b32e84492069e442309e38e0a32d1c03]
@startuml
    set namespaceSeparator none
    hide empty fields
    hide empty methods

    class "<size:14>Main\n<size:10>Workout" as Workout.Main [[Main.html]] {
        {static} +main(String[]): void
        {static} -meanIntensity(BasicWorkout[]): double
        {static} +totalEnergy(BasicWorkout[]): int
        {static} +print(BasicWorkout[]): void
        {static} +getDemoData(): BasicWorkout[]
    }

    center footer UMLDoclet 2.0.12, PlantUML 1.2020.16
@enduml

PlantUML version 1.2020.16(Sun Aug 23 22:20:43 CEST 2020)
(APACHE source distribution)
Java Runtime: OpenJDK Runtime Environment
JVM: OpenJDK 64-Bit Server VM
Default Encoding: ANSI_X3.4-1968
Language: en
Country: US
--></g></svg>