<?xml version="1.0" encoding="UTF-8" standalone="no"?><svg xmlns="http://www.w3.org/2000/svg" xmlns:xlink="http://www.w3.org/1999/xlink" contentScriptType="application/ecmascript" contentStyleType="text/css" height="783px" preserveAspectRatio="none" style="width:851px;height:783px;" version="1.1" viewBox="0 0 851 783" width="851px" zoomAndPan="magnify"><defs><filter height="300%" id="fvjpw1tgeowpa" width="300%" x="-1" y="-1"><feGaussianBlur result="blurOut" stdDeviation="2.0"/><feColorMatrix in="blurOut" result="blurOut2" type="matrix" values="0 0 0 0 0 0 0 0 0 0 0 0 0 0 0 0 0 0 .4 0"/><feOffset dx="4.0" dy="4.0" in="blurOut2" result="blurOut3"/><feBlend in="SourceGraphic" in2="blurOut3" mode="normal"/></filter></defs><g><!--MD5=[f2420d6bdff9df537f20f9cbdba70cbd]
cluster Workout--><polygon fill="#FFFFFF" filter="url(#fvjpw1tgeowpa)" points="16,6,89,6,96,28.2969,645,28.2969,645,755,16,755,16,6" style="stroke: #000000; stroke-width: 1.5;"/><line style="stroke: #000000; stroke-width: 1.5;" x1="16" x2="96" y1="28.2969" y2="28.2969"/><text fill="#000000" font-family="sans-serif" font-size="14" font-weight="bold" lengthAdjust="spacingAndGlyphs" textLength="67" x="20" y="20.9951">Workout</text><!--MD5=[aa8f7b917213fcc1c2766e2d59b49067]
cluster java.lang--><polygon fill="#FFFFFF" filter="url(#fvjpw1tgeowpa)" points="669,82.5,744,82.5,751,104.7969,829,104.7969,829,194.5,669,194.5,669,82.5" style="stroke: #000000; stroke-width: 1.5;"/><line style="stroke: #000000; stroke-width: 1.5;" x1="669" x2="751" y1="104.7969" y2="104.7969"/><text fill="#000000" font-family="sans-serif" font-size="14" font-weight="bold" lengthAdjust="spacingAndGlyphs" textLength="69" x="673" y="97.4951">java.lang</text><!--MD5=[0f81df3f44817ebb52349d02ba17b91f]
class Workout.BasicWorkout--><a href="BasicWorkout.html" target="_top" title="BasicWorkout.html" xlink:actuate="onRequest" xlink:href="BasicWorkout.html" xlink:show="new" xlink:title="BasicWorkout.html" xlink:type="simple"><rect codeLine="3" fill="#FEFECE" filter="url(#fvjpw1tgeowpa)" height="214.4609" id="Workout.BasicWorkout" style="stroke: #A80036; stroke-width: 1.5;" width="244" x="311" y="41"/><ellipse cx="386.25" cy="57" fill="#ADD1B2" rx="11" ry="11" style="stroke: #A80036; stroke-width: 1.0;"/><path d="M389.2188,62.6406 Q388.6406,62.9375 388,63.0781 Q387.3594,63.2344 386.6563,63.2344 Q384.1563,63.2344 382.8281,61.5938 Q381.5156,59.9375 381.5156,56.8125 Q381.5156,53.6875 382.8281,52.0313 Q384.1563,50.375 386.6563,50.375 Q387.3594,50.375 388,50.5313 Q388.6563,50.6875 389.2188,50.9844 L389.2188,53.7031 Q388.5938,53.125 388,52.8594 Q387.4063,52.5781 386.7813,52.5781 Q385.4375,52.5781 384.75,53.6563 Q384.0625,54.7188 384.0625,56.8125 Q384.0625,58.9063 384.75,59.9844 Q385.4375,61.0469 386.7813,61.0469 Q387.4063,61.0469 388,60.7813 Q388.5938,60.5 389.2188,59.9219 L389.2188,62.6406 Z "/><text fill="#000000" font-family="sans-serif" font-size="12" lengthAdjust="spacingAndGlyphs" textLength="85" x="406.75" y="61.1543">BasicWorkout</text><line style="stroke: #A80036; stroke-width: 1.5;" x1="312" x2="554" y1="73" y2="73"/><polygon fill="none" points="322,79,326,83,322,87,318,83" style="stroke: #B38D22; stroke-width: 1.0;"/><text fill="#000000" font-family="sans-serif" font-size="11" lengthAdjust="spacingAndGlyphs" textLength="69" x="331" y="87.2104">duration: int</text><polygon fill="none" points="322,91.8047,326,95.8047,322,99.8047,318,95.8047" style="stroke: #B38D22; stroke-width: 1.0;"/><text fill="#000000" font-family="sans-serif" font-size="11" lengthAdjust="spacingAndGlyphs" textLength="70" x="331" y="100.0151">intensity: int</text><polygon fill="none" points="322,104.6094,326,108.6094,322,112.6094,318,108.6094" style="stroke: #B38D22; stroke-width: 1.0;"/><text fill="#000000" font-family="sans-serif" font-size="11" lengthAdjust="spacingAndGlyphs" textLength="61" x="331" y="112.8198">energy: int</text><polygon fill="none" points="322,117.4141,326,121.4141,322,125.4141,318,121.4141" style="stroke: #B38D22; stroke-width: 1.0;"/><text fill="#000000" font-family="sans-serif" font-size="11" lengthAdjust="spacingAndGlyphs" textLength="105" x="331" y="125.6245">description: String</text><line style="stroke: #A80036; stroke-width: 1.5;" x1="312" x2="554" y1="132.2188" y2="132.2188"/><ellipse cx="322" cy="143.2188" fill="#84BE84" rx="3" ry="3" style="stroke: #038048; stroke-width: 1.0;"/><text fill="#000000" font-family="sans-serif" font-size="11" lengthAdjust="spacingAndGlyphs" textLength="132" x="331" y="146.4292">BasicWorkout(Date, int)</text><ellipse cx="322" cy="156.0234" fill="#84BE84" rx="3" ry="3" style="stroke: #038048; stroke-width: 1.0;"/><text fill="#000000" font-family="sans-serif" font-size="11" lengthAdjust="spacingAndGlyphs" textLength="154" x="331" y="159.2339">BasicWorkout(Date, int, int)</text><ellipse cx="322" cy="168.8281" fill="#84BE84" rx="3" ry="3" style="stroke: #038048; stroke-width: 1.0;"/><text fill="#000000" font-family="sans-serif" font-size="11" lengthAdjust="spacingAndGlyphs" textLength="176" x="331" y="172.0386">BasicWorkout(Date, int, int, int)</text><ellipse cx="322" cy="181.6328" fill="#84BE84" rx="3" ry="3" style="stroke: #038048; stroke-width: 1.0;"/><text fill="#000000" font-family="sans-serif" font-size="11" lengthAdjust="spacingAndGlyphs" textLength="218" x="331" y="184.8433">BasicWorkout(Date, int, int, int, String)</text><ellipse cx="322" cy="194.4375" fill="#84BE84" rx="3" ry="3" style="stroke: #038048; stroke-width: 1.0;"/><text fill="#000000" font-family="sans-serif" font-size="11" lengthAdjust="spacingAndGlyphs" textLength="160" x="331" y="197.6479">BasicWorkout(BasicWorkout)</text><ellipse cx="322" cy="207.2422" fill="#84BE84" rx="3" ry="3" style="stroke: #038048; stroke-width: 1.0;"/><text fill="#000000" font-family="sans-serif" font-size="11" lengthAdjust="spacingAndGlyphs" textLength="132" x="331" y="210.4526">getDescription(): String</text><ellipse cx="322" cy="220.0469" fill="#84BE84" rx="3" ry="3" style="stroke: #038048; stroke-width: 1.0;"/><text fill="#000000" font-family="sans-serif" font-size="11" lengthAdjust="spacingAndGlyphs" textLength="87" x="331" y="223.2573">getEnergy(): int</text><ellipse cx="322" cy="232.8516" fill="#84BE84" rx="3" ry="3" style="stroke: #038048; stroke-width: 1.0;"/><text fill="#000000" font-family="sans-serif" font-size="11" lengthAdjust="spacingAndGlyphs" textLength="150" x="331" y="236.062">getIntensityString(): String</text><ellipse cx="322" cy="245.6563" fill="#84BE84" rx="3" ry="3" style="stroke: #038048; stroke-width: 1.0;"/><text fill="#000000" font-family="sans-serif" font-size="11" lengthAdjust="spacingAndGlyphs" textLength="96" x="331" y="248.8667">getIntensity(): int</text></a><!--MD5=[650a94e77b2a97286b2f3a6eca87323a]
class Workout.Date--><a href="Date.html" target="_top" title="Date.html" xlink:actuate="onRequest" xlink:href="Date.html" xlink:show="new" xlink:title="Date.html" xlink:type="simple"><rect codeLine="19" fill="#FEFECE" filter="url(#fvjpw1tgeowpa)" height="406.5313" id="Workout.Date" style="stroke: #A80036; stroke-width: 1.5;" width="210" x="419" y="332"/><ellipse cx="504.75" cy="348" fill="#ADD1B2" rx="11" ry="11" style="stroke: #A80036; stroke-width: 1.0;"/><path d="M507.7188,353.6406 Q507.1406,353.9375 506.5,354.0781 Q505.8594,354.2344 505.1563,354.2344 Q502.6563,354.2344 501.3281,352.5938 Q500.0156,350.9375 500.0156,347.8125 Q500.0156,344.6875 501.3281,343.0313 Q502.6563,341.375 505.1563,341.375 Q505.8594,341.375 506.5,341.5313 Q507.1563,341.6875 507.7188,341.9844 L507.7188,344.7031 Q507.0938,344.125 506.5,343.8594 Q505.9063,343.5781 505.2813,343.5781 Q503.9375,343.5781 503.25,344.6563 Q502.5625,345.7188 502.5625,347.8125 Q502.5625,349.9063 503.25,350.9844 Q503.9375,352.0469 505.2813,352.0469 Q505.9063,352.0469 506.5,351.7813 Q507.0938,351.5 507.7188,350.9219 L507.7188,353.6406 Z "/><text fill="#000000" font-family="sans-serif" font-size="12" lengthAdjust="spacingAndGlyphs" textLength="30" x="525.25" y="352.1543">Date</text><line style="stroke: #A80036; stroke-width: 1.5;" x1="420" x2="628" y1="364" y2="364"/><rect fill="none" height="6" style="stroke: #C82930; stroke-width: 1.0;" width="6" x="427" y="372"/><text fill="#000000" font-family="sans-serif" font-size="11" lengthAdjust="spacingAndGlyphs" textLength="28" x="439" y="378.2104">y: int</text><rect fill="none" height="6" style="stroke: #C82930; stroke-width: 1.0;" width="6" x="427" y="384.8047"/><text fill="#000000" font-family="sans-serif" font-size="11" lengthAdjust="spacingAndGlyphs" textLength="33" x="439" y="391.0151">m: int</text><rect fill="none" height="6" style="stroke: #C82930; stroke-width: 1.0;" width="6" x="427" y="397.6094"/><text fill="#000000" font-family="sans-serif" font-size="11" lengthAdjust="spacingAndGlyphs" textLength="29" x="439" y="403.8198">d: int</text><line style="stroke: #A80036; stroke-width: 1.5;" x1="420" x2="628" y1="410.4141" y2="410.4141"/><ellipse cx="430" cy="421.4141" fill="#84BE84" rx="3" ry="3" style="stroke: #038048; stroke-width: 1.0;"/><text fill="#000000" font-family="sans-serif" font-size="11" lengthAdjust="spacingAndGlyphs" textLength="92" x="439" y="424.6245">Date(int, int, int)</text><ellipse cx="430" cy="434.2188" fill="#84BE84" rx="3" ry="3" style="stroke: #038048; stroke-width: 1.0;"/><text fill="#000000" font-family="sans-serif" font-size="11" lengthAdjust="spacingAndGlyphs" textLength="60" x="439" y="437.4292">Date(Date)</text><ellipse cx="430" cy="447.0234" fill="#84BE84" rx="3" ry="3" style="stroke: #038048; stroke-width: 1.0;"/><text fill="#000000" font-family="sans-serif" font-size="11" lengthAdjust="spacingAndGlyphs" textLength="34" x="439" y="450.2339">Date()</text><ellipse cx="430" cy="459.8281" fill="#84BE84" rx="3" ry="3" style="stroke: #038048; stroke-width: 1.0;"/><text fill="#000000" font-family="sans-serif" font-size="11" lengthAdjust="spacingAndGlyphs" textLength="74" x="439" y="463.0386">getYear(): int</text><ellipse cx="430" cy="472.6328" fill="#84BE84" rx="3" ry="3" style="stroke: #038048; stroke-width: 1.0;"/><text fill="#000000" font-family="sans-serif" font-size="11" lengthAdjust="spacingAndGlyphs" textLength="69" x="439" y="475.8433">getDay(): int</text><ellipse cx="430" cy="485.4375" fill="#84BE84" rx="3" ry="3" style="stroke: #038048; stroke-width: 1.0;"/><text fill="#000000" font-family="sans-serif" font-size="11" lengthAdjust="spacingAndGlyphs" textLength="82" x="439" y="488.6479">getMonth(): int</text><ellipse cx="430" cy="498.2422" fill="#84BE84" rx="3" ry="3" style="stroke: #038048; stroke-width: 1.0;"/><text fill="#000000" font-family="sans-serif" font-size="11" lengthAdjust="spacingAndGlyphs" textLength="98" x="439" y="501.4526">isLeap(): boolean</text><ellipse cx="430" cy="511.0469" fill="#84BE84" rx="3" ry="3" style="stroke: #038048; stroke-width: 1.0;"/><text fill="#000000" font-family="sans-serif" font-size="11" lengthAdjust="spacingAndGlyphs" textLength="79" x="439" y="514.2573">weekday(): int</text><ellipse cx="430" cy="523.8516" fill="#84BE84" rx="3" ry="3" style="stroke: #038048; stroke-width: 1.0;"/><text fill="#000000" font-family="sans-serif" font-size="11" lengthAdjust="spacingAndGlyphs" textLength="109" x="439" y="527.062">dateString(): String</text><rect fill="#F24D5C" height="6" style="stroke: #C82930; stroke-width: 1.0;" width="6" x="427" y="533.6563"/><text fill="#000000" font-family="sans-serif" font-size="11" lengthAdjust="spacingAndGlyphs" textLength="132" x="439" y="539.8667">numberEnding(): String</text><rect fill="#F24D5C" height="6" style="stroke: #C82930; stroke-width: 1.0;" width="6" x="427" y="546.4609"/><text fill="#000000" font-family="sans-serif" font-size="11" lengthAdjust="spacingAndGlyphs" textLength="133" x="439" y="552.6714">monthName(int): String</text><rect fill="#F24D5C" height="6" style="stroke: #C82930; stroke-width: 1.0;" width="6" x="427" y="559.2656"/><text fill="#000000" font-family="sans-serif" font-size="11" lengthAdjust="spacingAndGlyphs" textLength="117" x="439" y="565.4761">dayName(int): String</text><ellipse cx="430" cy="575.0703" fill="#84BE84" rx="3" ry="3" style="stroke: #038048; stroke-width: 1.0;"/><text fill="#000000" font-family="sans-serif" font-size="11" lengthAdjust="spacingAndGlyphs" textLength="95" x="439" y="578.2808">addDay(int): void</text><ellipse cx="430" cy="587.875" fill="#84BE84" rx="3" ry="3" style="stroke: #038048; stroke-width: 1.0;"/><text fill="#000000" font-family="sans-serif" font-size="11" lengthAdjust="spacingAndGlyphs" textLength="108" x="439" y="591.0854">addMonth(int): void</text><ellipse cx="430" cy="600.6797" fill="#84BE84" rx="3" ry="3" style="stroke: #038048; stroke-width: 1.0;"/><text fill="#000000" font-family="sans-serif" font-size="11" lengthAdjust="spacingAndGlyphs" textLength="100" x="439" y="603.8901">addYear(int): void</text><ellipse cx="430" cy="613.4844" fill="#84BE84" rx="3" ry="3" style="stroke: #038048; stroke-width: 1.0;"/><text fill="#000000" font-family="sans-serif" font-size="11" lengthAdjust="spacingAndGlyphs" text-decoration="underline" textLength="184" x="439" y="616.6948">julianDayNumber(int, int, int): int</text><ellipse cx="430" cy="626.2891" fill="#84BE84" rx="3" ry="3" style="stroke: #038048; stroke-width: 1.0;"/><text fill="#000000" font-family="sans-serif" font-size="11" lengthAdjust="spacingAndGlyphs" textLength="126" x="439" y="629.4995">julianDayNumber(): int</text><ellipse cx="430" cy="639.0938" fill="#84BE84" rx="3" ry="3" style="stroke: #038048; stroke-width: 1.0;"/><text fill="#000000" font-family="sans-serif" font-size="11" lengthAdjust="spacingAndGlyphs" text-decoration="underline" textLength="73" x="439" y="642.3042">lil2jul(int): int</text><ellipse cx="430" cy="651.8984" fill="#84BE84" rx="3" ry="3" style="stroke: #038048; stroke-width: 1.0;"/><text fill="#000000" font-family="sans-serif" font-size="11" lengthAdjust="spacingAndGlyphs" text-decoration="underline" textLength="73" x="439" y="655.1089">jul2lil(int): int</text><ellipse cx="430" cy="664.7031" fill="#84BE84" rx="3" ry="3" style="stroke: #038048; stroke-width: 1.0;"/><text fill="#000000" font-family="sans-serif" font-size="11" lengthAdjust="spacingAndGlyphs" textLength="122" x="439" y="667.9136">lilianDayNumber(): int</text><ellipse cx="430" cy="677.5078" fill="#84BE84" rx="3" ry="3" style="stroke: #038048; stroke-width: 1.0;"/><text fill="#000000" font-family="sans-serif" font-size="11" lengthAdjust="spacingAndGlyphs" text-decoration="underline" textLength="180" x="439" y="680.7183">lilianDayNumber(int, int, int): int</text><ellipse cx="430" cy="690.3125" fill="#84BE84" rx="3" ry="3" style="stroke: #038048; stroke-width: 1.0;"/><text fill="#000000" font-family="sans-serif" font-size="11" lengthAdjust="spacingAndGlyphs" textLength="101" x="439" y="693.5229">setJulian(int): void</text><ellipse cx="430" cy="703.1172" fill="#84BE84" rx="3" ry="3" style="stroke: #038048; stroke-width: 1.0;"/><text fill="#000000" font-family="sans-serif" font-size="11" lengthAdjust="spacingAndGlyphs" textLength="130" x="439" y="706.3276">numericString(): String</text><ellipse cx="430" cy="715.9219" fill="#84BE84" rx="3" ry="3" style="stroke: #038048; stroke-width: 1.0;"/><text fill="#000000" font-family="sans-serif" font-size="11" lengthAdjust="spacingAndGlyphs" textLength="120" x="439" y="719.1323">compareTo(Date): int</text><ellipse cx="430" cy="728.7266" fill="#84BE84" rx="3" ry="3" style="stroke: #038048; stroke-width: 1.0;"/><text fill="#000000" font-family="sans-serif" font-size="11" lengthAdjust="spacingAndGlyphs" textLength="88" x="439" y="731.937">scan(): boolean</text></a><!--MD5=[f78d8484e331adcc23841e0985aa5205]
class Workout.Main--><a href="Main.html" target="_top" title="Main.html" xlink:actuate="onRequest" xlink:href="Main.html" xlink:show="new" xlink:title="Main.html" xlink:type="simple"><rect codeLine="50" fill="#FEFECE" filter="url(#fvjpw1tgeowpa)" height="112.0234" id="Workout.Main" style="stroke: #A80036; stroke-width: 1.5;" width="244" x="32" y="92"/><ellipse cx="135.25" cy="108" fill="#ADD1B2" rx="11" ry="11" style="stroke: #A80036; stroke-width: 1.0;"/><path d="M138.2188,113.6406 Q137.6406,113.9375 137,114.0781 Q136.3594,114.2344 135.6563,114.2344 Q133.1563,114.2344 131.8281,112.5938 Q130.5156,110.9375 130.5156,107.8125 Q130.5156,104.6875 131.8281,103.0313 Q133.1563,101.375 135.6563,101.375 Q136.3594,101.375 137,101.5313 Q137.6563,101.6875 138.2188,101.9844 L138.2188,104.7031 Q137.5938,104.125 137,103.8594 Q136.4063,103.5781 135.7813,103.5781 Q134.4375,103.5781 133.75,104.6563 Q133.0625,105.7188 133.0625,107.8125 Q133.0625,109.9063 133.75,110.9844 Q134.4375,112.0469 135.7813,112.0469 Q136.4063,112.0469 137,111.7813 Q137.5938,111.5 138.2188,110.9219 L138.2188,113.6406 Z "/><text fill="#000000" font-family="sans-serif" font-size="12" lengthAdjust="spacingAndGlyphs" textLength="29" x="155.75" y="112.1543">Main</text><line style="stroke: #A80036; stroke-width: 1.5;" x1="33" x2="275" y1="124" y2="124"/><line style="stroke: #A80036; stroke-width: 1.5;" x1="33" x2="275" y1="132" y2="132"/><ellipse cx="43" cy="143" fill="#84BE84" rx="3" ry="3" style="stroke: #038048; stroke-width: 1.0;"/><text fill="#000000" font-family="sans-serif" font-size="11" lengthAdjust="spacingAndGlyphs" text-decoration="underline" textLength="109" x="52" y="146.2104">main(String[]): void</text><rect fill="#F24D5C" height="6" style="stroke: #C82930; stroke-width: 1.0;" width="6" x="40" y="152.8047"/><text fill="#000000" font-family="sans-serif" font-size="11" lengthAdjust="spacingAndGlyphs" text-decoration="underline" textLength="218" x="52" y="159.0151">meanIntensity(BasicWorkout[]): double</text><ellipse cx="43" cy="168.6094" fill="#84BE84" rx="3" ry="3" style="stroke: #038048; stroke-width: 1.0;"/><text fill="#000000" font-family="sans-serif" font-size="11" lengthAdjust="spacingAndGlyphs" text-decoration="underline" textLength="178" x="52" y="171.8198">totalEnergy(BasicWorkout[]): int</text><ellipse cx="43" cy="181.4141" fill="#84BE84" rx="3" ry="3" style="stroke: #038048; stroke-width: 1.0;"/><text fill="#000000" font-family="sans-serif" font-size="11" lengthAdjust="spacingAndGlyphs" text-decoration="underline" textLength="149" x="52" y="184.6245">print(BasicWorkout[]): void</text><ellipse cx="43" cy="194.2188" fill="#84BE84" rx="3" ry="3" style="stroke: #038048; stroke-width: 1.0;"/><text fill="#000000" font-family="sans-serif" font-size="11" lengthAdjust="spacingAndGlyphs" text-decoration="underline" textLength="177" x="52" y="197.4292">getDemoData(): BasicWorkout[]</text></a><!--MD5=[cbf094ec8a5b35918ed4a268b77c4ebc]
class Workout.PushUp--><a href="PushUp.html" target="_top" title="PushUp.html" xlink:actuate="onRequest" xlink:href="PushUp.html" xlink:show="new" xlink:title="PushUp.html" xlink:type="simple"><rect codeLine="58" fill="#FEFECE" filter="url(#fvjpw1tgeowpa)" height="99.2188" id="Workout.PushUp" style="stroke: #A80036; stroke-width: 1.5;" width="125" x="32.5" y="486"/><ellipse cx="67.75" cy="502" fill="#ADD1B2" rx="11" ry="11" style="stroke: #A80036; stroke-width: 1.0;"/><path d="M70.7188,507.6406 Q70.1406,507.9375 69.5,508.0781 Q68.8594,508.2344 68.1563,508.2344 Q65.6563,508.2344 64.3281,506.5938 Q63.0156,504.9375 63.0156,501.8125 Q63.0156,498.6875 64.3281,497.0313 Q65.6563,495.375 68.1563,495.375 Q68.8594,495.375 69.5,495.5313 Q70.1563,495.6875 70.7188,495.9844 L70.7188,498.7031 Q70.0938,498.125 69.5,497.8594 Q68.9063,497.5781 68.2813,497.5781 Q66.9375,497.5781 66.25,498.6563 Q65.5625,499.7188 65.5625,501.8125 Q65.5625,503.9063 66.25,504.9844 Q66.9375,506.0469 68.2813,506.0469 Q68.9063,506.0469 69.5,505.7813 Q70.0938,505.5 70.7188,504.9219 L70.7188,507.6406 Z "/><text fill="#000000" font-family="sans-serif" font-size="12" lengthAdjust="spacingAndGlyphs" textLength="48" x="86.25" y="506.1543">PushUp</text><line style="stroke: #A80036; stroke-width: 1.5;" x1="33.5" x2="156.5" y1="518" y2="518"/><rect fill="none" height="6" style="stroke: #C82930; stroke-width: 1.0;" width="6" x="40.5" y="526"/><text fill="#000000" font-family="sans-serif" font-size="11" lengthAdjust="spacingAndGlyphs" textLength="83" x="52.5" y="532.2104">repetitions: int</text><line style="stroke: #A80036; stroke-width: 1.5;" x1="33.5" x2="156.5" y1="538.8047" y2="538.8047"/><ellipse cx="43.5" cy="549.8047" fill="#84BE84" rx="3" ry="3" style="stroke: #038048; stroke-width: 1.0;"/><text fill="#000000" font-family="sans-serif" font-size="11" lengthAdjust="spacingAndGlyphs" textLength="99" x="52.5" y="553.0151">PushUp(Date, int)</text><ellipse cx="43.5" cy="562.6094" fill="#84BE84" rx="3" ry="3" style="stroke: #038048; stroke-width: 1.0;"/><text fill="#000000" font-family="sans-serif" font-size="11" lengthAdjust="spacingAndGlyphs" textLength="96" x="52.5" y="565.8198">getIntensity(): int</text><ellipse cx="43.5" cy="575.4141" fill="#84BE84" rx="3" ry="3" style="stroke: #038048; stroke-width: 1.0;"/><text fill="#000000" font-family="sans-serif" font-size="11" lengthAdjust="spacingAndGlyphs" textLength="87" x="52.5" y="578.6245">getEnergy(): int</text></a><!--MD5=[19ffd12c74edf8b394dc89512fd4021b]
class Workout.Running--><a href="Running.html" target="_top" title="Running.html" xlink:actuate="onRequest" xlink:href="Running.html" xlink:show="new" xlink:title="Running.html" xlink:type="simple"><rect codeLine="65" fill="#FEFECE" filter="url(#fvjpw1tgeowpa)" height="99.2188" id="Workout.Running" style="stroke: #A80036; stroke-width: 1.5;" width="191" x="192.5" y="486"/><ellipse cx="258.25" cy="502" fill="#ADD1B2" rx="11" ry="11" style="stroke: #A80036; stroke-width: 1.0;"/><path d="M261.2188,507.6406 Q260.6406,507.9375 260,508.0781 Q259.3594,508.2344 258.6563,508.2344 Q256.1563,508.2344 254.8281,506.5938 Q253.5156,504.9375 253.5156,501.8125 Q253.5156,498.6875 254.8281,497.0313 Q256.1563,495.375 258.6563,495.375 Q259.3594,495.375 260,495.5313 Q260.6563,495.6875 261.2188,495.9844 L261.2188,498.7031 Q260.5938,498.125 260,497.8594 Q259.4063,497.5781 258.7813,497.5781 Q257.4375,497.5781 256.75,498.6563 Q256.0625,499.7188 256.0625,501.8125 Q256.0625,503.9063 256.75,504.9844 Q257.4375,506.0469 258.7813,506.0469 Q259.4063,506.0469 260,505.7813 Q260.5938,505.5 261.2188,504.9219 L261.2188,507.6406 Z "/><text fill="#000000" font-family="sans-serif" font-size="12" lengthAdjust="spacingAndGlyphs" textLength="51" x="278.75" y="506.1543">Running</text><line style="stroke: #A80036; stroke-width: 1.5;" x1="193.5" x2="382.5" y1="518" y2="518"/><rect fill="none" height="6" style="stroke: #C82930; stroke-width: 1.0;" width="6" x="200.5" y="526"/><text fill="#000000" font-family="sans-serif" font-size="11" lengthAdjust="spacingAndGlyphs" textLength="70" x="212.5" y="532.2104">distance: int</text><line style="stroke: #A80036; stroke-width: 1.5;" x1="193.5" x2="382.5" y1="538.8047" y2="538.8047"/><ellipse cx="203.5" cy="549.8047" fill="#84BE84" rx="3" ry="3" style="stroke: #038048; stroke-width: 1.0;"/><text fill="#000000" font-family="sans-serif" font-size="11" lengthAdjust="spacingAndGlyphs" textLength="165" x="212.5" y="553.0151">Running(Date, int, int, String)</text><ellipse cx="203.5" cy="562.6094" fill="#84BE84" rx="3" ry="3" style="stroke: #038048; stroke-width: 1.0;"/><text fill="#000000" font-family="sans-serif" font-size="11" lengthAdjust="spacingAndGlyphs" textLength="96" x="212.5" y="565.8198">getIntensity(): int</text><ellipse cx="203.5" cy="575.4141" fill="#84BE84" rx="3" ry="3" style="stroke: #038048; stroke-width: 1.0;"/><text fill="#000000" font-family="sans-serif" font-size="11" lengthAdjust="spacingAndGlyphs" textLength="87" x="212.5" y="578.6245">getEnergy(): int</text></a><!--MD5=[008d82c49f85b4d489e041917c99c847]
class java.lang.Comparable--><rect codeLine="79" fill="#FEFECE" filter="url(#fvjpw1tgeowpa)" height="60.8047" id="java.lang.Comparable" style="stroke: #A80036; stroke-width: 1.5;" width="127" x="685.5" y="117.5"/><ellipse cx="704.55" cy="133.5" fill="#B4A7E5" rx="11" ry="11" style="stroke: #A80036; stroke-width: 1.0;"/><path d="M700.4719,129.2656 L700.4719,127.1094 L707.8625,127.1094 L707.8625,129.2656 L705.3938,129.2656 L705.3938,137.3438 L707.8625,137.3438 L707.8625,139.5 L700.4719,139.5 L700.4719,137.3438 L702.9406,137.3438 L702.9406,129.2656 L700.4719,129.2656 Z "/><text fill="#000000" font-family="sans-serif" font-size="12" font-style="italic" lengthAdjust="spacingAndGlyphs" textLength="75" x="719.45" y="137.6543">Comparable</text><rect fill="#FFFFFF" height="15.9688" style="stroke: #000000; stroke-width: 1.0; stroke-dasharray: 2.0,2.0;" width="9" x="806.5" y="114.5"/><text fill="#000000" font-family="sans-serif" font-size="12" font-style="italic" lengthAdjust="spacingAndGlyphs" textLength="7" x="807.5" y="126.6387">T</text><line style="stroke: #A80036; stroke-width: 1.5;" x1="686.5" x2="811.5" y1="149.5" y2="149.5"/><line style="stroke: #A80036; stroke-width: 1.5;" x1="686.5" x2="811.5" y1="157.5" y2="157.5"/><ellipse cx="696.5" cy="168.5" fill="#84BE84" rx="3" ry="3" style="stroke: #038048; stroke-width: 1.0;"/><text fill="#000000" font-family="sans-serif" font-size="11" font-style="italic" lengthAdjust="spacingAndGlyphs" textLength="101" x="705.5" y="171.7104">compareTo(T): int</text><!--MD5=[8111fb027e47184826e17726871f0cbe]
link Workout.BasicWorkout to Workout.Date--><path codeLine="72" d="M458.05,255.1 C463.35,277.57 469.12,302.01 474.97,326.79 " fill="none" id="Workout.BasicWorkout-to-Workout.Date" style="stroke: #A80036; stroke-width: 1.0;"/><polygon fill="#A80036" points="476.14,331.75,477.9723,322.0731,474.9948,326.8829,470.185,323.9054,476.14,331.75" style="stroke: #A80036; stroke-width: 1.0;"/><text fill="#000000" font-family="sans-serif" font-size="13" lengthAdjust="spacingAndGlyphs" textLength="29" x="468" y="298.0669">date</text><!--MD5=[eee1937f734884db17973c809f025925]
reverse link java.lang.Comparable to Workout.Date--><path codeLine="73" d="M721.58,195.98 C698.28,235.9 663.27,295.88 629.17,354.31 " fill="none" id="java.lang.Comparable-backto-Workout.Date" style="stroke: #A80036; stroke-width: 1.0; stroke-dasharray: 7.0,7.0;"/><polygon fill="none" points="715.59,192.35,731.72,178.61,727.68,199.41,715.59,192.35" style="stroke: #A80036; stroke-width: 1.0;"/><!--MD5=[04a39eafd2b038651f0f4c56888a49ef]
reverse link Workout.BasicWorkout to Workout.PushUp--><path codeLine="74" d="M294.52,254.63 C294.35,254.75 294.17,254.88 294,255 C242.47,291.24 214.92,283.27 175,332 C137.87,377.32 116.37,442 105.19,485.98 " fill="none" id="Workout.BasicWorkout-backto-Workout.PushUp" style="stroke: #A80036; stroke-width: 1.0;"/><polygon fill="none" points="290.63,248.81,310.97,242.88,298.77,260.2,290.63,248.81" style="stroke: #A80036; stroke-width: 1.0;"/><!--MD5=[9413c96beb3f71eb2b243bf4d9a1649d]
reverse link Workout.BasicWorkout to Workout.Running--><path codeLine="75" d="M385.95,274.09 C358.78,346.33 326.15,433.09 306.25,485.98 " fill="none" id="Workout.BasicWorkout-backto-Workout.Running" style="stroke: #A80036; stroke-width: 1.0;"/><polygon fill="none" points="379.5,271.36,393.09,255.1,392.6,276.29,379.5,271.36" style="stroke: #A80036; stroke-width: 1.0;"/><text fill="#888888" font-family="sans-serif" font-size="10" lengthAdjust="spacingAndGlyphs" textLength="192" x="320.5" y="770.2822">UMLDoclet 2.0.12, PlantUML 1.2020.16</text><!--MD5=[56c03104d463f2dc933269a4d05d8c23]
@startuml
    namespace Workout {

        class BasicWorkout [[BasicWorkout.html]] {
            #duration: int
            #intensity: int
            #energy: int
            #description: String
            +BasicWorkout(Date, int)
            +BasicWorkout(Date, int, int)
            +BasicWorkout(Date, int, int, int)
            +BasicWorkout(Date, int, int, int, String)
            +BasicWorkout(BasicWorkout)
            +getDescription(): String
            +getEnergy(): int
            +getIntensityString(): String
            +getIntensity(): int
        }

        class Date [[Date.html]] {
            -y: int
            -m: int
            -d: int
            +Date(int, int, int)
            +Date(Date)
            +Date()
            +getYear(): int
            +getDay(): int
            +getMonth(): int
            +isLeap(): boolean
            +weekday(): int
            +dateString(): String
            -numberEnding(): String
            -monthName(int): String
            -dayName(int): String
            +addDay(int): void
            +addMonth(int): void
            +addYear(int): void
            {static} +julianDayNumber(int, int, int): int
            +julianDayNumber(): int
            {static} +lil2jul(int): int
            {static} +jul2lil(int): int
            +lilianDayNumber(): int
            {static} +lilianDayNumber(int, int, int): int
            +setJulian(int): void
            +numericString(): String
            +compareTo(Date): int
            +scan(): boolean
        }

        class Main [[Main.html]] {
            {static} +main(String[]): void
            {static} -meanIntensity(BasicWorkout[]): double
            {static} +totalEnergy(BasicWorkout[]): int
            {static} +print(BasicWorkout[]): void
            {static} +getDemoData(): BasicWorkout[]
        }

        class PushUp [[PushUp.html]] {
            -repetitions: int
            +PushUp(Date, int)
            +getIntensity(): int
            +getEnergy(): int
        }

        class Running [[Running.html]] {
            -distance: int
            +Running(Date, int, int, String)
            +getIntensity(): int
            +getEnergy(): int
        }

        BasicWorkout - -> Date: date
        java.lang.Comparable <|.. Date
        BasicWorkout <|- - PushUp
        BasicWorkout <|- - Running
    }

    namespace java.lang {
        interface Comparable<T> {
            {abstract} +compareTo(T): int
        }
    }

    center footer UMLDoclet 2.0.12, PlantUML 1.2020.16
@enduml

PlantUML version 1.2020.16(Sun Aug 23 22:20:43 CEST 2020)
(APACHE source distribution)
Java Runtime: OpenJDK Runtime Environment
JVM: OpenJDK 64-Bit Server VM
Default Encoding: ANSI_X3.4-1968
Language: en
Country: US
--></g></svg>